<svg width="40" height="40" viewBox="0 0 40 40" fill="none" xmlns="http://www.w3.org/2000/svg">
<path d="M34.835 17.6099C34.6987 17.3274 34.4855 17.0891 34.2199 16.9222C33.9543 16.7554 33.6471 16.6668 33.3334 16.6666H26.6667V4.99992C26.6667 4.55789 26.4911 4.13397 26.1786 3.82141C25.866 3.50885 25.4421 3.33325 25 3.33325H15.0001C14.558 3.33325 14.1341 3.50885 13.8215 3.82141C13.509 4.13397 13.3334 4.55789 13.3334 4.99992V16.6666H6.66672C6.35294 16.6671 6.04567 16.7561 5.7802 16.9234C5.51472 17.0907 5.3018 17.3294 5.16588 17.6122C5.02995 17.895 4.97654 18.2104 5.01177 18.5222C5.047 18.834 5.16945 19.1296 5.36505 19.3749L18.6984 36.0416C18.8545 36.2368 19.0526 36.3945 19.2779 36.5028C19.5032 36.6111 19.75 36.6674 20.0001 36.6674C20.2501 36.6674 20.4969 36.6111 20.7222 36.5028C20.9475 36.3945 21.1456 36.2368 21.3017 36.0416L34.635 19.3749C35.035 18.8733 35.1117 18.1883 34.835 17.6099Z" fill="#616161"/>
</svg>
