<svg width="40" height="40" viewBox="0 0 40 40" fill="none" xmlns="http://www.w3.org/2000/svg">
<path d="M20 36.6667C10.795 36.6667 3.33334 29.205 3.33334 20C3.33334 10.795 10.795 3.33338 20 3.33338C22.5878 3.33143 25.1403 3.933 27.4549 5.09028C29.7695 6.24756 31.7822 7.92867 33.3333 10H28.8167C26.8921 8.30298 24.5186 7.19731 21.9812 6.81571C19.4438 6.43412 16.8501 6.7928 14.5115 7.84873C12.1729 8.90466 10.1886 10.613 8.79679 12.7687C7.40499 14.9244 6.66479 17.4359 6.66501 20.0019C6.66522 22.5679 7.40584 25.0793 8.798 27.2347C10.1902 29.3902 12.1747 31.0982 14.5135 32.1537C16.8523 33.2093 19.446 33.5675 21.9834 33.1855C24.5208 32.8035 26.894 31.6974 28.8183 30H33.335C31.7837 32.0716 29.7707 33.7529 27.4558 34.9102C25.1409 36.0675 22.5881 36.6689 20 36.6667ZM31.6667 26.6667V21.6667H18.3333V18.3334H31.6667V13.3334L40 20L31.6667 26.6667Z" fill="#616161"/>
</svg>
