<svg width="40" height="40" viewBox="0 0 40 40" fill="none" xmlns="http://www.w3.org/2000/svg">
<path d="M6.66672 23.3333H13.3334V34.9999C13.3334 35.4419 13.509 35.8659 13.8215 36.1784C14.1341 36.491 14.558 36.6666 15.0001 36.6666H25C25.4421 36.6666 25.866 36.491 26.1786 36.1784C26.4911 35.8659 26.6667 35.4419 26.6667 34.9999V23.3333H33.3334C33.6472 23.3327 33.9544 23.2437 34.2199 23.0764C34.4854 22.9092 34.6983 22.6704 34.8342 22.3876C34.9701 22.1048 35.0236 21.7894 34.9883 21.4776C34.9531 21.1658 34.8307 20.8703 34.635 20.6249L21.3017 3.95825C20.6667 3.16659 19.3334 3.16659 18.6984 3.95825L5.36505 20.6249C5.16945 20.8703 5.047 21.1658 5.01177 21.4776C4.97654 21.7894 5.02995 22.1048 5.16588 22.3876C5.3018 22.6704 5.51472 22.9092 5.7802 23.0764C6.04567 23.2437 6.35294 23.3327 6.66672 23.3333Z" fill="#616161"/>
</svg>
